<?xml version="1.0" ?>
<!-- Uploaded to: SVG Repo, www.svgrepo.com, Generator: SVG Repo Mixer Tools -->
<svg width="800px" height="800px" viewBox="0 0 50 50" id="Message_And_Communication_Icons" version="1.1" xml:space="preserve" xmlns="http://www.w3.org/2000/svg" xmlns:xlink="http://www.w3.org/1999/xlink">
<g>
<g>
<g>
<polygon points="37.7,15.2 37.7,32.3 12.1,32.3 12.1,38.7 16.2,35 41.9,35 41.9,15.2    " style="fill:#4DE0F9;"/>
</g>
</g>
<g>
<g>
<path d="M9,40.3V13.5h32.4v21h-26L9,40.3z M10.2,14.7v22.9l4.7-4.3h25.3V14.7H10.2z" style="fill:#0D5FC3;"/>
</g>
</g>
<g>
<g>
<path d="M26.2,18.6c-0.1,0-0.2,0-0.3,0c1.4,1.2,2.3,2.9,2.3,4.9c0,3.4-2.7,6.2-6.1,6.4     c1.1,0.9,2.6,1.5,4.1,1.5c3.5,0,6.4-2.9,6.4-6.4S29.7,18.6,26.2,18.6z" style="fill:#4DE0F9;"/>
</g>
</g>
<g>
<g>
<path d="M25.2,31.1c-3.9,0-7-3.1-7-7s3.1-7,7-7s7,3.1,7,7S29,31.1,25.2,31.1z M25.2,18.2     c-3.2,0-5.8,2.6-5.8,5.8s2.6,5.8,5.8,5.8S31,27.3,31,24S28.4,18.2,25.2,18.2z" style="fill:#0D5FC3;"/>
</g>
</g>
<g>
<g>
<polygon points="26,25.7 24.8,25.7 24.8,24 26.9,24 26.9,22.1 24.3,22.1 24.3,23.1 23.1,23.1 23.1,20.9      28.1,20.9 28.1,25.2 26,25.2    " style="fill:#0D5FC3;"/>
</g>
</g>
<g>
<g>
<rect height="1.1" style="fill:#0D5FC3;" width="1.2" x="24.8" y="26.8"/>
</g>
</g>
</g>
</svg>